<?xml version="1.0" encoding="utf-8"?>
<!-- Generator: Adobe Illustrator 24.1.0, SVG Export Plug-In . SVG Version: 6.00 Build 0)  -->
<svg version="1.1" id="_x31_" xmlns="http://www.w3.org/2000/svg" xmlns:xlink="http://www.w3.org/1999/xlink" x="0px" y="0px"
	 viewBox="0 0 1366 768" style="enable-background:new 0 0 1366 768;" xml:space="preserve">
<style type="text/css">
	.st0{fill:none;stroke:#000000;stroke-width:20;stroke-linecap:round;stroke-linejoin:round;stroke-miterlimit:10;}
	.st1{display:none;}
	.st2{display:inline;fill:none;stroke:#000000;stroke-width:12;stroke-linecap:round;stroke-linejoin:round;stroke-miterlimit:10;}
</style>
<path class="st0" d="M654.14,465.5c0,0-9.01,11-9.01,16s3,73,3,73s6.01,36,12.02,43c6.01,7-3,38-3,38l-12.02,21
	c0,0-12.02,17-27.03,13c-15.02-4-110.14,34-110.14,34l-71.09,30c0,0-52.07,13-73.09-33c-21.03-46-33.04-84-33.04-88s3-35,0-38
	s13.02-28,23.03-41s57.07-82.99,57.07-119c0-8,15.02-17,15.02-17s4.01-9,4.01-20s-3.5-32.5-9.01-38s-24.03-20-24.03-34
	s12.02-36,16.02-36s8.01,0,8.01,0s14.02-34,33.04-53s47.06-42,81.1-55c34.04-13,170.21-59,221.28-21s125.67,94.86,155.2,203
	c0,0,3,8-16.02,13c0,0-6.01,21-33.04,46"/>
<path class="st0" d="M652.14,466.5l-27.03,86c0,0-3,50-3,56s-2,20-19.02,22s-72.09,14-72.09,14s-32.04,9-61.08,23
	c-29.04,14-42.05,17-42.05,17s-26.03,14-43.05-8s-36.05-57-36.05-57s-5.01-13-5.01-17s-12.02-22-12.02-22l-7.01-20
	c0,0-5.01-15,6.01-36s26.03-51,26.03-51s6.01-20,6.01-23s0-17,0-17s-8.01-23-13.02-30s-12.02-18-3-31s23.03-36,23.03-36
	s7.01-16,7.01-36v-3l-18.02-14c0,0-12.02-16,1-26c13.02-10,49.06-27,49.06-27l27.03-29l21.03-24c0,0,30.04-27,53.07-38
	c23.03-11,103.13-51,155.2-49c52.07,2,100.13,12,222.28,83C942.51,202.5,961,280,961,280s8.01,25-2,58s-17,68-40,84
	c-30.56,21.26-45,36-64,35"/>
<path class="st0" d="M653.14,467.5c0,0-7.01,19-7.01,36s7.01,34,3,51c-4.01,17-22.03,74-31.04,83c-9.01,9-97.12,67-175.22,72
	s-76.1,4-81.1-2s-26.03-18-26.03-42s0-34,0-34s-9.01-24-14.02-29s-8.01-14-8.01-28s3-58,6.01-62c3-4,11.01-35,26.03-42v-16
	c0,0-8.01-44-18.02-52c-10.01-8-22.03-20-22.03-20s-19.02-11-2-25c17.02-14,38.05-28,39.05-32s12.02-14,5.01-35
	c-7.01-21-7.01-42,10.01-53s26.03-12,38.05-32s36.05-68,89.11-89s136.17-52,226.28-41S874.42,105.33,943,209
	c37.05,56,32.55,108.5,9.52,138.5c-23.03,30-18.43,68.5-92.52,93.5"/>
<path class="st0" d="M653.14,466.5c0,0-10.01,8-10.01,36s3,137,3,137s4.01,19-25.03,32s-165.21,61-210.26,59s-45.06-3-58.07-16
	c-13.02-13-10.01-29-7.01-40s11.01-35,11.01-51s-16.02-25-17.02-39c-1-14,5.01-38,6.01-48s2-55,2-55h14.02c0,0,15.02-4,15.02-23
	s-28.04-38-28.04-38s-14.02-16-14.02-24s34.04-52,34.04-52s-5.01-28-7.01-36c-2-8,3-93,9.01-104C376.8,193.5,371.76,96,561,57
	c113.14-23,231.32-21.5,294.4,28.5S968,172,971,227s51.16,177-74,226"/>
<g class="st1">
	<path class="st2" d="M690.58,465.48c0-30.82-21.23-55.8-47.42-55.8"/>
	<line class="st2" x1="690.66" y1="465.52" x2="690.66" y2="490.57"/>
	<line class="st2" x1="643.21" y1="409.67" x2="567.06" y2="409.67"/>
	<path class="st2" d="M567.02,329.98c-18.7,0-33.86,17.84-33.86,39.85c0,22.01,15.16,39.85,33.86,39.85"/>
	<line class="st2" x1="712.81" y1="330.07" x2="567.06" y2="330.07"/>
	<path class="st2" d="M712.77,409.67c18.7,0,33.86-17.84,33.86-39.85c0-22.01-15.16-39.85-33.86-39.85"/>
	<path class="st2" d="M533.12,290.18c-18.7,0-33.86,17.84-33.86,39.85s15.16,39.85,33.86,39.85"/>
	<line class="st2" x1="779.11" y1="290.18" x2="533.16" y2="290.18"/>
	<path class="st2" d="M779.07,369.87c18.7,0,33.86-17.84,33.86-39.85s-15.16-39.85-33.86-39.85"/>
	<path class="st2" d="M499.3,250.29c-18.7,0-33.86,17.84-33.86,39.85c0,22.01,15.16,39.85,33.86,39.85"/>
	<line class="st2" x1="845.48" y1="250.38" x2="499.34" y2="250.38"/>
	<path class="st2" d="M845.44,329.98c18.7,0,33.86-17.84,33.86-39.85c0-22.01-15.16-39.85-33.86-39.85"/>
	<path class="st2" d="M465.49,210.49c-18.7,0-33.86,17.84-33.86,39.85c0,22.01,15.16,39.85,33.86,39.85"/>
	<path class="st2" d="M499.3,170.69c-18.7,0-33.86,17.84-33.86,39.85"/>
	<path class="st2" d="M533.12,130.89c-18.7,0-33.86,17.84-33.86,39.85"/>
	<line class="st2" x1="533.16" y1="130.89" x2="615.77" y2="130.89"/>
	<path class="st2" d="M567.02,91c-18.7,0-33.86,17.84-33.86,39.85"/>
	<line class="st2" x1="567.06" y1="91.09" x2="767.83" y2="91.09"/>
	<path class="st2" d="M903.18,210.54c0-22.01-15.16-39.85-33.86-39.85"/>
	<path class="st2" d="M869.36,170.74c0-22.01-15.16-39.85-33.86-39.85"/>
	<path class="st2" d="M835.47,130.85c0-22.01-15.16-39.85-33.86-39.85"/>
	<line class="st2" x1="801.65" y1="91.09" x2="767.83" y2="91.09"/>
	<path class="st2" d="M903.14,290.18c18.7,0,33.86-17.84,33.86-39.85c0-22.01-15.16-39.85-33.86-39.85"/>
	<line class="st2" x1="499.34" y1="170.78" x2="581.96" y2="170.78"/>
	<line class="st2" x1="465.53" y1="210.58" x2="548.14" y2="210.58"/>
	<line class="st2" x1="835.55" y1="130.89" x2="752.94" y2="130.89"/>
	<line class="st2" x1="869.36" y1="170.78" x2="786.75" y2="170.78"/>
	<line class="st2" x1="903.18" y1="210.58" x2="820.57" y2="210.58"/>
</g>
</svg>
